<svg viewBox="0 0 330 328" fill="none" xmlns="http://www.w3.org/2000/svg">
<path d="M96.7617 16.2117C77.0102 25.3658 79.355 36.2506 81.9399 41.828L82.523 43.086C85.069 48.5796 91.9755 57.6559 111.727 48.5018L113.53 47.6661C133.198 38.5509 130.778 27.395 128.232 21.9015L127.649 20.6434C125.064 15.066 118.191 6.28022 98.5649 15.376L96.7617 16.2117ZM117.825 26.2663C119.497 29.8727 119.574 35.6445 109.09 40.5034C98.5221 45.4011 94.1934 41.447 92.5414 37.8825L92.3081 37.3793C90.6561 33.8148 90.4053 28.3274 101.141 23.3519C111.708 18.4542 115.901 22.1147 117.553 25.6792L117.825 26.2663Z" fill="#C31E54"/>
<path d="M146.278 37.2367L157.077 36.0793L154.28 9.97581L169.032 8.39481L168.165 0.306396L127.907 4.6209L128.774 12.7093L143.48 11.1332L146.278 37.2367Z" fill="#C31E54"/>
<path d="M199.158 39.9418L212.958 42.5834L196.132 20.3505L218.516 8.63511L205.078 6.06298L185.089 16.8249L187.783 2.75222L177.205 0.727528L170.74 34.502L181.317 36.5267L184.368 20.5928L199.158 39.9418Z" fill="#C31E54"/>
<path d="M237.57 44.0334C248.38 49.8901 254.116 47.1627 257.044 41.7578L257.264 41.3514C260.259 35.8245 259.382 29.7774 248.491 23.8766L225.815 11.5906L209.433 41.8258L218.902 46.956L224.363 36.8776L237.57 44.0334ZM231.562 23.5887L244.607 30.6565C247.655 32.3078 248.38 34.1723 247.257 36.2448L247.191 36.3668C246.068 38.4393 244.051 38.766 241.085 37.1586L228.04 30.0909L231.562 23.5887Z" fill="#C31E54"/>
<path d="M269.841 51.8745L277.771 44.9341L270.678 36.8302L244.801 59.4779L260.691 77.6333C270.128 88.4152 276.285 87.4492 281.154 83.1875L281.502 82.8831C286.301 78.6823 288.014 72.6384 278.669 61.9608L269.841 51.8745ZM257.737 62.4677L264.032 56.958L272.647 66.8009C276.148 70.8006 275.774 72.9703 274 74.5228L273.896 74.6141C272.192 76.1057 269.852 76.3103 266.352 72.3106L257.737 62.4677ZM307.267 78.6363L300.175 70.5325L274.298 93.1801L281.391 101.284L307.267 78.6363Z" fill="#C31E54"/>
<path d="M283.853 113.143L287.733 123.288L312.254 113.91L317.554 127.767L325.152 124.861L310.687 87.0441L303.09 89.9502L308.373 103.765L283.853 113.143Z" fill="#C31E54"/>
<path d="M317.871 145.378L328.407 145.183L328.208 134.415L293.826 135.051L294.272 159.174C294.537 173.5 299.867 176.73 306.337 176.61L306.799 176.601C313.176 176.483 318.381 172.966 318.119 158.779L317.871 145.378ZM301.789 145.675L310.153 145.52L310.395 158.598C310.494 163.913 308.809 165.331 306.453 165.374L306.314 165.377C304.05 165.419 302.129 164.068 302.031 158.753L301.789 145.675ZM329.236 189.962L329.036 179.195L294.655 179.831L294.854 190.598L329.236 189.962Z" fill="#C31E54"/>
<path d="M290.428 197.551L296.983 210.972L283.39 217.319L278.847 230.077L301.096 220.09L311.367 241.263L315.801 228.81L309.564 216.286L322.312 210.522L327.149 196.936L305.513 206.994L294.877 185.054L290.428 197.551Z" fill="#C31E54"/>
<path d="M232.909 276.031L205.273 286.965C194.916 291.062 193.685 296.371 195.675 301.399L195.913 302.001C198.14 307.631 203.556 307.626 205.969 307.317C204.609 308.402 201.714 311.387 203.363 315.556L203.601 316.157C205.097 319.939 209.027 322.46 218.182 318.839L245.559 308.007L232.909 276.031ZM217.232 311.411C214.438 312.516 213.274 311.585 212.747 310.252L212.713 310.166C212.203 308.877 212.38 307.316 215.174 306.21L230.818 300.021L232.876 305.222L217.232 311.411ZM211.628 299.76C208.319 301.069 207.045 299.734 206.501 298.359L206.433 298.187C205.923 296.897 205.836 294.794 209.145 293.485L225.649 286.956L228.132 293.231L211.628 299.76Z" fill="#C31E54"/>
<path d="M167.266 307.019L180.282 306.348L174.577 319.555L167.266 307.019ZM159.341 293.358L147.755 293.956L167.898 327.35L181.837 326.632L197.422 291.395L186.483 291.959L183.714 298.396L162.896 299.469L159.341 293.358Z" fill="#C31E54"/>
<path d="M124.669 286.359L111.084 282.771L126.336 306.112L103.197 316.255L116.425 319.748L137.11 310.391L133.451 324.245L143.863 326.994L152.644 293.747L142.232 290.997L138.089 306.682L124.669 286.359Z" fill="#C31E54"/>
<path d="M83.1834 280.657L94.1236 287.742L81.7602 295.099L83.1834 280.657ZM84.7691 264.944L75.0315 258.638L71.7795 297.501L83.4957 305.088L116.775 285.671L107.581 279.717L101.564 283.31L84.0679 271.979L84.7691 264.944Z" fill="#C31E54"/>
<path d="M78.9098 261.668L72.2642 253.193L61.6077 261.55L47.3467 243.365L58.0031 235.008L51.3575 226.534L24.2981 247.754L30.9438 256.229L40.8001 248.499L55.0611 266.684L45.2048 274.414L51.8504 282.888L78.9098 261.668Z" fill="#C31E54"/>
<path d="M44.2526 203.994C38.0067 185.37 27.8043 185.184 23.6851 186.565L23.2031 186.727L26.8331 197.551C27.6662 197.564 33.0584 196.926 36.6002 207.486C39.7893 216.996 35.5731 221.286 31.7168 222.579L31.191 222.756C27.1156 224.122 21.9839 223.357 18.7067 213.585C15.2383 203.243 19.3549 200.4 20.1431 199.843L16.5131 189.019L16.0311 189.181C12.2186 190.46 4.17608 196.423 10.5102 215.31L11.1127 217.107C17.5791 236.388 28.6419 235.505 34.5578 233.521L35.8286 233.095C41.613 231.155 51.1893 224.678 44.8552 205.791L44.2526 203.994Z" fill="#C31E54"/>
<path d="M37.5612 151.578L37.7165 140.81L3.33237 140.314L3.17709 151.082L25.6286 174.472L2.84453 174.144L2.68925 184.912L37.0734 185.408L37.2287 174.639L14.8695 151.251L37.5612 151.578Z" fill="#C31E54"/>
<path d="M48.9619 109.924L52.6481 99.8056L20.3376 88.035L16.6514 98.1537L30.1669 127.624L8.75684 119.824L5.07061 129.943L37.3811 141.714L41.0673 131.595L27.6387 102.156L48.9619 109.924ZM11.2243 107.245C13.8505 100.036 9.746 96.1792 7.5746 95.3882L7.48774 95.3566L4.82986 102.652C5.39442 102.858 6.7562 103.846 5.93352 106.104C5.0792 108.45 3.41683 108.287 2.85227 108.081L0.131104 115.551L0.217959 115.582C2.38936 116.373 7.82285 116.582 10.6864 108.721L11.2243 107.245Z" fill="#C31E54"/>
</svg>
